<svg style="position: absolute; width: 0; height: 0;" width="0" height="0" version="1.1" xmlns="http://www.w3.org/2000/svg" xmlns:xlink="http://www.w3.org/1999/xlink">
<defs>
<symbol id="icon-js" viewBox="0 0 1024 1024">
	<title>js</title>
	<path class="path1" d="M224.31 135.288h168.424v472.038c0 212.75-101.938 286.994-264.828 286.994-39.888 0-90.858-6.648-124.104-17.728l18.838-136.292c23.27 7.756 53.188 13.296 86.428 13.296 70.916 0 115.242-32.136 115.242-147.374v-470.934z"></path>
	<path class="path2" d="M538.968 709.268c44.322 23.27 115.24 46.54 187.264 46.54 77.566 0 118.564-32.132 118.564-81.996 0-45.43-35.458-73.13-125.212-104.158-124.106-44.324-206.1-113.024-206.1-222.72 0-127.43 107.482-223.834 282.556-223.834 85.324 0 146.264 16.626 190.59 37.676l-37.678 135.184c-28.808-14.402-83.106-35.458-155.124-35.458-73.134 0-108.594 34.35-108.594 72.026 0 47.648 40.998 68.698 138.512 106.376 131.856 48.756 192.8 117.456 192.8 223.83 0 125.212-95.294 231.588-300.286 231.588-85.324 0-169.54-23.272-211.64-46.54l34.348-138.514z"></path>
</symbol>
<symbol id="icon-lock" viewBox="0 0 1024 1024">
	<title>lock</title>
	<path class="path1" d="M592 448h-16v-192c0-105.87-86.13-192-192-192h-128c-105.87 0-192 86.13-192 192v192h-16c-26.4 0-48 21.6-48 48v480c0 26.4 21.6 48 48 48h544c26.4 0 48-21.6 48-48v-480c0-26.4-21.6-48-48-48zM192 256c0-35.29 28.71-64 64-64h128c35.29 0 64 28.71 64 64v192h-256v-192z"></path>
</symbol>
<symbol id="icon-cogs" viewBox="0 0 1024 1024">
	<title>cogs</title>
	<path class="path1" d="M363.722 722.052l41.298-57.816-45.254-45.256-57.818 41.296c-10.722-5.994-22.204-10.774-34.266-14.192l-11.682-70.084h-64l-11.68 70.086c-12.062 3.418-23.544 8.198-34.266 14.192l-57.818-41.298-45.256 45.256 41.298 57.816c-5.994 10.72-10.774 22.206-14.192 34.266l-70.086 11.682v64l70.086 11.682c3.418 12.060 8.198 23.544 14.192 34.266l-41.298 57.816 45.254 45.256 57.818-41.296c10.722 5.994 22.204 10.774 34.266 14.192l11.682 70.084h64l11.68-70.086c12.062-3.418 23.544-8.198 34.266-14.192l57.818 41.296 45.254-45.256-41.298-57.816c5.994-10.72 10.774-22.206 14.192-34.266l70.088-11.68v-64l-70.086-11.682c-3.418-12.060-8.198-23.544-14.192-34.266zM224 864c-35.348 0-64-28.654-64-64s28.652-64 64-64 64 28.654 64 64-28.652 64-64 64zM1024 384v-64l-67.382-12.25c-1.242-8.046-2.832-15.978-4.724-23.79l57.558-37.1-24.492-59.128-66.944 14.468c-4.214-6.91-8.726-13.62-13.492-20.13l39.006-56.342-45.256-45.254-56.342 39.006c-6.512-4.766-13.22-9.276-20.13-13.494l14.468-66.944-59.128-24.494-37.1 57.558c-7.812-1.892-15.744-3.482-23.79-4.724l-12.252-67.382h-64l-12.252 67.382c-8.046 1.242-15.976 2.832-23.79 4.724l-37.098-57.558-59.128 24.492 14.468 66.944c-6.91 4.216-13.62 8.728-20.13 13.494l-56.342-39.006-45.254 45.254 39.006 56.342c-4.766 6.51-9.278 13.22-13.494 20.13l-66.944-14.468-24.492 59.128 57.558 37.1c-1.892 7.812-3.482 15.742-4.724 23.79l-67.384 12.252v64l67.382 12.25c1.242 8.046 2.832 15.978 4.724 23.79l-57.558 37.1 24.492 59.128 66.944-14.468c4.216 6.91 8.728 13.618 13.494 20.13l-39.006 56.342 45.254 45.256 56.342-39.006c6.51 4.766 13.22 9.276 20.13 13.492l-14.468 66.944 59.128 24.492 37.102-57.558c7.81 1.892 15.742 3.482 23.788 4.724l12.252 67.384h64l12.252-67.382c8.044-1.242 15.976-2.832 23.79-4.724l37.1 57.558 59.128-24.492-14.468-66.944c6.91-4.216 13.62-8.726 20.13-13.492l56.342 39.006 45.256-45.256-39.006-56.342c4.766-6.512 9.276-13.22 13.492-20.13l66.944 14.468 24.492-59.13-57.558-37.1c1.892-7.812 3.482-15.742 4.724-23.79l67.382-12.25zM672 491.2c-76.878 0-139.2-62.322-139.2-139.2s62.32-139.2 139.2-139.2 139.2 62.322 139.2 139.2c0 76.878-62.32 139.2-139.2 139.2z"></path>
</symbol>
<symbol id="icon-rocket" viewBox="0 0 1024 1024">
	<title>rocket</title>
	<path class="path1" d="M704 64l-320 320h-192l-192 256c0 0 203.416-56.652 322.066-30.084l-322.066 414.084 421.902-328.144c58.838 134.654-37.902 328.144-37.902 328.144l256-192v-192l320-320 64-320-320 64z"></path>
</symbol>
<symbol id="icon-bin" viewBox="0 0 1024 1024">
	<title>bin</title>
	<path class="path1" d="M128 320v640c0 35.2 28.8 64 64 64h576c35.2 0 64-28.8 64-64v-640h-704zM320 896h-64v-448h64v448zM448 896h-64v-448h64v448zM576 896h-64v-448h64v448zM704 896h-64v-448h64v448z"></path>
	<path class="path2" d="M848 128h-208v-80c0-26.4-21.6-48-48-48h-224c-26.4 0-48 21.6-48 48v80h-208c-26.4 0-48 21.6-48 48v80h832v-80c0-26.4-21.6-48-48-48zM576 128h-192v-63.198h192v63.198z"></path>
</symbol>
<symbol id="icon-clipboard" viewBox="0 0 1024 1024">
	<title>clipboard</title>
	<path class="path1" d="M928 128h-288c0-70.692-57.306-128-128-128-70.692 0-128 57.308-128 128h-288c-17.672 0-32 14.328-32 32v832c0 17.674 14.328 32 32 32h832c17.674 0 32-14.326 32-32v-832c0-17.672-14.326-32-32-32zM512 64c35.346 0 64 28.654 64 64s-28.654 64-64 64c-35.346 0-64-28.654-64-64s28.654-64 64-64zM896 960h-768v-768h128v96c0 17.672 14.328 32 32 32h448c17.674 0 32-14.328 32-32v-96h128v768z"></path>
	<path class="path2" d="M448 858.51l-205.254-237.254 58.508-58.51 146.746 114.744 274.742-242.744 58.514 58.508z"></path>
</symbol>
<symbol id="icon-checkmark" viewBox="0 0 1024 1024">
	<title>checkmark</title>
	<path class="path1" d="M864 128l-480 480-224-224-160 160 384 384 640-640z"></path>
</symbol>
<symbol id="icon-infinite" viewBox="0 0 1024 1024">
	<title>infinite</title>
	<path class="path1" d="M783.988 752.012c-64.104 0-124.372-24.96-169.7-70.288l-102.288-102.282-102.276 102.27c-45.332 45.336-105.6 70.3-169.706 70.3-64.118 0-124.39-24.964-169.722-70.3-45.332-45.334-70.296-105.604-70.296-169.712s24.964-124.38 70.296-169.714c45.334-45.332 105.608-70.296 169.714-70.296 64.108 0 124.38 24.964 169.712 70.296l102.278 102.276 102.276-102.276c45.332-45.332 105.604-70.298 169.712-70.298 64.112 0 124.384 24.966 169.71 70.298 45.338 45.334 70.302 105.606 70.302 169.714 0 64.112-24.964 124.382-70.3 169.71-45.326 45.336-105.598 70.302-169.712 70.302zM681.72 614.288c27.322 27.31 63.64 42.354 102.268 42.352 38.634 0 74.958-15.044 102.276-42.362 27.316-27.322 42.364-63.644 42.364-102.278s-15.046-74.956-42.364-102.274c-27.32-27.318-63.64-42.364-102.276-42.364-38.632 0-74.956 15.044-102.278 42.364l-102.268 102.274 102.278 102.288zM240.012 367.362c-38.634 0-74.956 15.044-102.274 42.364-27.32 27.318-42.364 63.64-42.364 102.274 0 38.632 15.044 74.954 42.364 102.276 27.32 27.316 63.642 42.364 102.274 42.364 38.634 0 74.956-15.044 102.272-42.362l102.276-102.278-102.276-102.274c-27.318-27.32-63.64-42.366-102.272-42.364v0z"></path>
</symbol>
<symbol id="icon-html52" viewBox="0 0 1024 1024">
	<title>html52</title>
	<path class="path1" d="M60.538 0l82.144 921.63 368.756 102.37 369.724-102.524 82.3-921.476h-902.924zM810.762 862.824l-297.226 82.376v0.466l-0.776-0.234-0.782 0.234v-0.466l-297.222-82.376-70.242-787.486h736.496l-70.248 787.486zM650.754 530.204l-13.070 146.552-126.21 34.070-125.862-33.916-8.050-90.234h-113.49l15.83 177.512 232.076 64.176 231.342-64.176 31.040-347.012h-411.966l-10.302-115.748h432.534l10.112-113.026h-566.218l30.498 341.802z"></path>
</symbol>
</defs>
</svg>
